<svg xmlns="http://www.w3.org/2000/svg" viewBox="0 0 512 512" width="100%" height="100%">
  <defs>
    <linearGradient id="blackGrad" x1="0%" y1="0%" x2="0%" y2="100%">
      <stop offset="0%" stop-color="#1c1c1e" />
      <stop offset="100%" stop-color="#0a0a0a" />
    </linearGradient>

    <linearGradient id="sportYellow" x1="0%" y1="0%" x2="100%" y2="100%">
      <stop offset="0%" stop-color="#fff200" />
      <stop offset="100%" stop-color="#ffd000" />
    </linearGradient>

    <filter id="shadow" x="-10%" y="-10%" width="130%" height="130%">
      <feDropShadow dx="0" dy="10" stdDeviation="12" flood-color="#000000" flood-opacity="0.6" />
    </filter>
  </defs>

  <rect width="512" height="512" rx="112" fill="url(#blackGrad)" />

  <g filter="url(#shadow)">
    <path d="M 120,380 
             L 210,130 
             L 270,130 
             L 250,240 
             L 280,210 
             L 300,130 
             L 392,130 
             L 392,380 
             L 332,380 
             L 332,230 
             L 305,330 
             L 260,330 
             L 220,380 
             Z" 
          fill="url(#sportYellow)" />

    <path d="M 285,110 
             L 325,230 
             L 280,245 
             L 315,390 
             L 250,260 
             L 290,245 
             Z" 
          fill="#0a0a0a" />
          
    <path d="M 280,245 L 315,390 L 250,260 Z" fill="url(#sportYellow)" opacity="0.1" />
  </g>

  <text x="256" y="445" 
        font-family="'Montserrat', 'Arial Black', sans-serif" 
        font-size="46" 
        font-weight="900" 
        fill="url(#sportYellow)" 
        text-anchor="middle" 
        letter-spacing="4">MATCHUP</text>
</svg>
